<svg xmlns="http://www.w3.org/2000/svg" width="89.782" height="53.9" viewBox="0 0 89.782 53.9"><g transform="translate(0.307)"><path d="M4.781-30.914v-.867H18.4v.867H17.25a3.365,3.365,0,0,0-2.836,1.148q-.562.75-.562,3.609v15.539A17.838,17.838,0,0,1,13.066-4.8,9.028,9.028,0,0,1,10.359-.926,6.878,6.878,0,0,1,5.719.727,5.141,5.141,0,0,1,2.25-.363a3.23,3.23,0,0,1-1.266-2.5A2.353,2.353,0,0,1,1.57-4.594a2.553,2.553,0,0,1,1.8-.727,2.064,2.064,0,0,1,1.348.492A7.93,7.93,0,0,1,6.234-2.2Q6.773-.937,7.617-.937A1.51,1.51,0,0,0,8.8-1.711a4.966,4.966,0,0,0,.551-2.742v-21.7a10.524,10.524,0,0,0-.3-3.187,2.1,2.1,0,0,0-.984-1.008,4.311,4.311,0,0,0-2.133-.562ZM48.717,0H40.233L29.475-14.859q-1.2.047-1.945.047-.3,0-.656-.012t-.727-.035v9.234q0,3,.656,3.727A3.339,3.339,0,0,0,29.475-.867h1.242V0H17.1V-.867h1.2A3.2,3.2,0,0,0,21.178-2.18a7.4,7.4,0,0,0,.492-3.445V-26.156q0-3-.656-3.727A3.443,3.443,0,0,0,18.3-30.914H17.1v-.867H28.678a27.534,27.534,0,0,1,7.465.738,8.54,8.54,0,0,1,4.078,2.719A7.074,7.074,0,0,1,41.9-23.6a7.421,7.421,0,0,1-1.91,5.086,10.789,10.789,0,0,1-5.918,3.047l6.563,9.117A16.307,16.307,0,0,0,44.5-2.18,9.741,9.741,0,0,0,48.717-.867ZM26.147-16.336q.445,0,.773.012t.539.012q4.547,0,6.855-1.969A6.3,6.3,0,0,0,36.623-23.3a6.547,6.547,0,0,0-1.863-4.84A6.669,6.669,0,0,0,29.827-30a20.684,20.684,0,0,0-3.68.445Z" transform="translate(19.792 31.781)" fill="#292936"></path><path d="M5.676-2.724V-8.448H5.16v5.58A2.343,2.343,0,0,1,2.808-.54,2.659,2.659,0,0,1,.936-1.368l-.228.4a2.812,2.812,0,0,0,2.064.948H2.82A2.842,2.842,0,0,0,5.676-2.724Zm8.088.732L14.6,0h.612L11.64-8.436,8.088,0h.6l.8-1.992ZM11.64-7.08l1.944,4.62h-3.9ZM21.492-8.4A4.228,4.228,0,0,0,17.28-4.176,4.217,4.217,0,0,0,21.492.036a4.2,4.2,0,0,0,2.172-.6l-.24-.48a3.651,3.651,0,0,1-1.932.552,3.734,3.734,0,0,1-3.7-3.684,3.734,3.734,0,0,1,3.7-3.684,3.518,3.518,0,0,1,1.908.528l.252-.468A4.241,4.241,0,0,0,21.492-8.4ZM31.584-.024h.624L28.74-4.416l3.528-4.02-.672.012L27.372-3.612V-8.436h-.516V0h.516V-2.844L28.38-3.96ZM44.832-3.192,46.284.024h.5L45.264-3.36l.264-.168a2.653,2.653,0,0,0,1.2-2.232,2.68,2.68,0,0,0-2.616-2.664H41.9V.024h.456V-3.084L44.112-3.1A2.466,2.466,0,0,0,44.832-3.192ZM42.36-3.54V-7.98h1.7a2.223,2.223,0,0,1,2.22,2.22,2.223,2.223,0,0,1-2.22,2.22ZM54.6-8.424a4.115,4.115,0,0,0-4.02,4.2A4.126,4.126,0,0,0,54.6-.012a4.126,4.126,0,0,0,4.02-4.212A4.115,4.115,0,0,0,54.6-8.424Zm0,7.908a3.693,3.693,0,0,1-3.576-3.708A3.69,3.69,0,0,1,54.6-7.92a3.682,3.682,0,0,1,3.576,3.7A3.685,3.685,0,0,1,54.6-.516ZM61.812-8.4V.012H66.2v-.48H62.34V-8.4Zm7.572,0V.012h4.392v-.48H69.912V-8.4Zm12.348.492v-.456H76.956V.012h4.668v-.48H77.436V-3.84h3.276v-.468H77.436v-3.6ZM87.84-3.192,89.292.024h.5L88.272-3.36l.264-.168a2.653,2.653,0,0,0,1.2-2.232A2.68,2.68,0,0,0,87.12-8.424H84.912V.024h.456V-3.084L87.12-3.1A2.466,2.466,0,0,0,87.84-3.192ZM85.368-3.54V-7.98h1.7a2.223,2.223,0,0,1,2.22,2.22,2.223,2.223,0,0,1-2.22,2.22Z" transform="translate(-0.708 53.614)" fill="#292936" stroke="#292936" stroke-width="0.5"></path></g></svg>