<svg xmlns="http://www.w3.org/2000/svg" width="118.876" height="33.762" viewBox="0 0 118.876 33.762"><path d="M-81.912-13.141h0A14.164,14.164,0,0,0-73.5-9.856h0a10.276,10.276,0,0,0,6.079-1.873h0A6.358,6.358,0,0,0-64.6-16.821h0a5.328,5.328,0,0,0-.789-2.793h0a7.676,7.676,0,0,0-3.286-2.727h0a19.333,19.333,0,0,0-4.534-1.38h-.066a11.321,11.321,0,0,1-4.107-1.446h0a3.164,3.164,0,0,1-.887-.854h0a1.6,1.6,0,0,1-.23-.92h0a2.614,2.614,0,0,1,1.249-2.07h0a6.277,6.277,0,0,1,3.68-1.117h0c2,0,3.614.986,5.29,2.1h0a1.659,1.659,0,0,0,2.333-.493h0a1.692,1.692,0,0,0-.46-2.333h0a12.871,12.871,0,0,0-7.163-2.629h0a9.715,9.715,0,0,0-5.684,1.741h0a6.071,6.071,0,0,0-2.629,4.8h0a5.043,5.043,0,0,0,.756,2.694h0a7.067,7.067,0,0,0,3.056,2.563h0A17.779,17.779,0,0,0-73.829-20.4h.066a13.153,13.153,0,0,1,4.5,1.544h0a3.1,3.1,0,0,1,.986.986h0a1.876,1.876,0,0,1,.3,1.051h0a2.957,2.957,0,0,1-1.413,2.366h0A7.081,7.081,0,0,1-73.5-13.24h0a10.716,10.716,0,0,1-6.276-2.53h0a1.713,1.713,0,0,0-2.4.23h0A1.748,1.748,0,0,0-81.912-13.141Zm47.84-19.287a1.823,1.823,0,0,0-2.4.953l-6.407,15.213L-47.116-26.35a1.879,1.879,0,0,0-1.709-1.117,1.813,1.813,0,0,0-1.709,1.117l-4.239,10.087-6.44-15.213a1.761,1.761,0,0,0-2.333-.953,1.776,1.776,0,0,0-.986,2.333l8.083,19.156a2.383,2.383,0,0,0,.164.3v.033c.066.066.1.131.164.2a.253.253,0,0,0,.066.1c.1.033.131.1.23.164h.033a.932.932,0,0,0,.3.2h0c.033,0,.033,0,.066.033a.836.836,0,0,1,.23.066h.1a1.118,1.118,0,0,0,.329.033h0a.91.91,0,0,0,.3-.033h.1a.509.509,0,0,1,.263-.066.032.032,0,0,1,.033-.033h.033c.066-.033.164-.131.263-.2h.066a.871.871,0,0,1,.2-.164c0-.033.033-.033.033-.1l.2-.2a.032.032,0,0,1,.033-.033,2.606,2.606,0,0,0,.131-.3l4.3-10.186,4.3,10.186a.812.812,0,0,0,.131.3s0,.033.066.033c.033.066.1.131.131.2a.253.253,0,0,0,.066.1c.066.033.131.1.23.164h.033a.668.668,0,0,0,.3.2h0c.033,0,.033,0,.066.033a.836.836,0,0,1,.23.066h.1a.91.91,0,0,0,.3.033,1.013,1.013,0,0,0,.329-.033h.066a1.016,1.016,0,0,1,.263-.066.032.032,0,0,1,.033-.033h.033c.131-.033.2-.131.3-.2h.033a1,1,0,0,1,.23-.164c0-.033.033-.033.033-.1a.871.871,0,0,0,.164-.2l.033-.033a.861.861,0,0,0,.164-.3l8.05-19.156A1.773,1.773,0,0,0-34.072-32.429Zm4.9,22.606.033-.033s0,.033.066.033h10.646a1.845,1.845,0,0,0,1.807-1.807,1.852,1.852,0,0,0-1.807-1.84h-8.9v-6.046h7.656a1.83,1.83,0,0,0,1.807-1.84,1.845,1.845,0,0,0-1.807-1.807h-7.656v-6.013h8.9a1.852,1.852,0,0,0,1.807-1.84,1.823,1.823,0,0,0-1.807-1.807H-29.176a1.782,1.782,0,0,0-1.807,1.807V-11.63A1.8,1.8,0,0,0-29.176-9.823Zm16.4,0,.033-.033s0,.033.066.033H-2.036A1.845,1.845,0,0,0-.229-11.63a1.852,1.852,0,0,0-1.807-1.84h-8.9v-6.046h7.656a1.83,1.83,0,0,0,1.807-1.84,1.845,1.845,0,0,0-1.807-1.807h-7.656v-6.013h8.9a1.852,1.852,0,0,0,1.807-1.84,1.823,1.823,0,0,0-1.807-1.807H-12.781a1.782,1.782,0,0,0-1.807,1.807V-11.63A1.8,1.8,0,0,0-12.781-9.823ZM17.678-31.016a1.8,1.8,0,0,0-1.807-1.807H1.841A1.782,1.782,0,0,0,.034-31.016a1.83,1.83,0,0,0,1.807,1.84H7.032V-11.63A1.8,1.8,0,0,0,8.84-9.823a1.782,1.782,0,0,0,1.807-1.807V-29.176h5.224A1.852,1.852,0,0,0,17.678-31.016Zm17.94-1.216a1.8,1.8,0,0,0-2.53.394L27.47-24.149l-5.619-7.689a1.752,1.752,0,0,0-2.5-.394,1.728,1.728,0,0,0-.361,2.5l6.67,9.233v8.871A1.823,1.823,0,0,0,27.47-9.823a1.782,1.782,0,0,0,1.807-1.807V-20.5l6.736-9.233A1.82,1.82,0,0,0,35.618-32.231Z" transform="translate(82.534 33.48)" fill="#292936"></path><path d="M3.489-2.218A2.776,2.776,0,0,0,5.2-2.8a.438.438,0,0,0,.074-.594.45.45,0,0,0-.594-.082,1.864,1.864,0,0,1-1.195.408A1.964,1.964,0,0,1,2.154-3.6a1.8,1.8,0,0,1-.542-1.291A1.83,1.83,0,0,1,2.154-6.18a1.964,1.964,0,0,1,1.335-.534,1.849,1.849,0,0,1,1.195.408.435.435,0,0,0,.594-.082A.439.439,0,0,0,5.2-6.981,2.776,2.776,0,0,0,3.489-7.56,2.724,2.724,0,0,0,.766-4.889,2.714,2.714,0,0,0,3.489-2.218Zm15.4-.26a.4.4,0,0,0,.378.26.4.4,0,0,0,.141-.022.421.421,0,0,0,.245-.534l-1.64-4.37a.408.408,0,0,0-.393-.26.415.415,0,0,0-.393.26l-1.64,4.37a.421.421,0,0,0,.245.534.432.432,0,0,0,.141.022.416.416,0,0,0,.386-.26l.364-.965h1.8Zm-1.87-1.781.6-1.6.6,1.6Zm13.333,2.04a.413.413,0,0,0,.415-.408V-4.407H32.5a.413.413,0,0,0,.408-.415A.417.417,0,0,0,32.5-5.23H30.77V-6.588h2.011A.418.418,0,0,0,33.189-7a.417.417,0,0,0-.408-.408H30.355A.407.407,0,0,0,29.947-7v4.377A.407.407,0,0,0,30.355-2.218Zm13.763,0,.007-.007s0,.007.015.007h2.4a.417.417,0,0,0,.408-.408.418.418,0,0,0-.408-.415H44.533V-4.407h1.729a.413.413,0,0,0,.408-.415.417.417,0,0,0-.408-.408H44.533V-6.588h2.011A.418.418,0,0,0,46.952-7a.412.412,0,0,0-.408-.408H44.118A.4.4,0,0,0,43.71-7v4.377A.407.407,0,0,0,44.118-2.218ZM60.967-7a.407.407,0,0,0-.408-.408H57.391A.4.4,0,0,0,56.983-7a.413.413,0,0,0,.408.415h1.172v3.962a.407.407,0,0,0,.408.408.4.4,0,0,0,.408-.408V-6.588h1.18A.418.418,0,0,0,60.967-7ZM71.874-2.218l.007-.007s0,.007.015.007h2.4a.417.417,0,0,0,.408-.408.418.418,0,0,0-.408-.415H72.289V-4.407h1.729a.413.413,0,0,0,.408-.415.417.417,0,0,0-.408-.408H72.289V-6.588H74.3A.418.418,0,0,0,74.708-7a.412.412,0,0,0-.408-.408H71.874A.4.4,0,0,0,71.466-7v4.377A.407.407,0,0,0,71.874-2.218Zm16.59-.868a1.872,1.872,0,0,1-.03-.438,1.405,1.405,0,0,0-.245-.8,1.15,1.15,0,0,0-.26-.275,1.572,1.572,0,0,0,.579-1.217,1.586,1.586,0,0,0-1.588-1.6H85.592A.4.4,0,0,0,85.184-7v4.377a.407.407,0,0,0,.408.408.413.413,0,0,0,.415-.408v-1.61h.875a1.411,1.411,0,0,1,.415.178.688.688,0,0,1,.223.215.626.626,0,0,1,.089.319,1.994,1.994,0,0,0,.156.89.729.729,0,0,0,.237.26.54.54,0,0,0,.289.082H88.3a.653.653,0,0,0,.163-.022.41.41,0,0,0,.26-.519A.4.4,0,0,0,88.463-3.086ZM86.92-5.06h-.913V-6.588h.913a.765.765,0,0,1,.764.772A.762.762,0,0,1,86.92-5.06ZM99.251-2.626h0a.4.4,0,0,0,.408.408h0a.413.413,0,0,0,.415-.408V-7h0a.413.413,0,0,0-.415-.408h0A.4.4,0,0,0,99.251-7Zm14.5.148a.4.4,0,0,0,.378.26.4.4,0,0,0,.141-.022.421.421,0,0,0,.245-.534l-1.64-4.37a.408.408,0,0,0-.393-.26.415.415,0,0,0-.393.26l-1.64,4.37a.421.421,0,0,0,.245.534.432.432,0,0,0,.141.022.416.416,0,0,0,.386-.26l.364-.965h1.8Zm-1.87-1.781.6-1.6.6,1.6Z" transform="translate(-0.201 35.98)" fill="#292936"></path></svg>